HIERARCHY
ROOT Hips
{
	OFFSET	0.00	0.00	0.00
	CHANNELS 6 Xposition Yposition Zposition Zrotation Xrotation Yrotation
	JOINT LeftUpLeg
	{
		OFFSET	 0.126116	-0.014019	-0.065224
		CHANNELS 3 Zrotation Xrotation Yrotation
		JOINT LeftLeg
		{
			OFFSET	 0.000000	 0.000000	 0.569914
			CHANNELS 3 Zrotation Xrotation Yrotation
			JOINT LeftFoot
			{
				OFFSET	 0.000000	 0.000000	 0.544423
				CHANNELS 3 Zrotation Xrotation Yrotation
				JOINT LeftToeBase
				{
					OFFSET	 0.000000	 0.000000	 0.207117
					CHANNELS 3 Zrotation Xrotation Yrotation
					End Site
					{
						OFFSET	 0.000000	 0.000000	 0.207117
					}
				}
			}
		}
	}
	JOINT RightUpLeg
	{
		OFFSET	-0.124023	-0.008373	-0.065224
		CHANNELS 3 Zrotation Xrotation Yrotation
		JOINT RightLeg
		{
			OFFSET	 0.000000	 0.000000	 0.570047
			CHANNELS 3 Zrotation Xrotation Yrotation
			JOINT RightFoot
			{
				OFFSET	 0.000000	 0.000000	 0.544354
				CHANNELS 3 Zrotation Xrotation Yrotation
				JOINT RightToeBase
				{
					OFFSET	 0.000000	 0.000000	 0.207540
					CHANNELS 3 Zrotation Xrotation Yrotation
					End Site
					{
						OFFSET	 0.000000	 0.000000	 0.207540
					}
				}
			}
		}
	}
	JOINT Spine
	{
		OFFSET	 0.000184	-0.007763	 0.117403
		CHANNELS 3 Zrotation Xrotation Yrotation
		JOINT Spine1
		{
			OFFSET	 0.000000	 0.000000	 0.137269
			CHANNELS 3 Zrotation Xrotation Yrotation
			JOINT Spine2
			{
				OFFSET	 0.000000	 0.000000	 0.156879
				CHANNELS 3 Zrotation Xrotation Yrotation
				JOINT LeftShoulder
				{
					OFFSET	 0.080501	-0.002496	 0.160144
					CHANNELS 3 Zrotation Xrotation Yrotation
					JOINT LeftArm
					{
						OFFSET	 0.000000	 0.000000	 0.164363
						CHANNELS 3 Zrotation Xrotation Yrotation
						JOINT LeftForeArm
						{
							OFFSET	 0.000000	 0.000000	 0.364576
							CHANNELS 3 Zrotation Xrotation Yrotation
							JOINT LeftHand
							{
								OFFSET	 0.000000	 0.000000	 0.360812
								CHANNELS 3 Zrotation Xrotation Yrotation
								JOINT LeftHandIndex1
								{
									OFFSET	 0.000000	 0.000000	 0.086006
									CHANNELS 3 Zrotation Xrotation Yrotation
									JOINT LeftHandIndex2
									{
										OFFSET	 0.000000	 0.000000	 0.047236
										CHANNELS 3 Zrotation Xrotation Yrotation
										JOINT LeftHandIndex3
										{
											OFFSET	-0.004284	-0.000551	 0.038166
											CHANNELS 3 Zrotation Xrotation Yrotation
											End Site
											{
												OFFSET	-0.004284	-0.000551	 0.038166
											}
										}
									}
								}
							}
						}
					}
				}
				JOINT Neck
				{
					OFFSET	 0.000000	 0.000000	 0.176489
					CHANNELS 3 Zrotation Xrotation Yrotation
					JOINT Head
					{
						OFFSET	 0.000000	-0.001747	 0.077940
						CHANNELS 3 Zrotation Xrotation Yrotation
						End Site
						{
							OFFSET	 0.000000	-0.001747	 0.077940
						}
					}
				}
				JOINT RightShoulder
				{
					OFFSET	-0.080363	 0.000306	 0.159706
					CHANNELS 3 Zrotation Xrotation Yrotation
					JOINT RightArm
					{
						OFFSET	 0.000000	 0.000000	 0.164196
						CHANNELS 3 Zrotation Xrotation Yrotation
						JOINT RightForeArm
						{
							OFFSET	 0.000000	 0.000000	 0.365611
							CHANNELS 3 Zrotation Xrotation Yrotation
							JOINT RightHand
							{
								OFFSET	 0.000000	 0.000000	 0.360648
								CHANNELS 3 Zrotation Xrotation Yrotation
								JOINT RightHandIndex1
								{
									OFFSET	 0.000000	 0.000000	 0.069977
									CHANNELS 3 Zrotation Xrotation Yrotation
									JOINT RightHandIndex2
									{
										OFFSET	 0.000000	 0.000000	 0.052305
										CHANNELS 3 Zrotation Xrotation Yrotation
										JOINT RightHandIndex3
										{
											OFFSET	 0.009002	-0.000782	 0.042196
											CHANNELS 3 Zrotation Xrotation Yrotation
											End Site
											{
												OFFSET	 0.009002	-0.000782	 0.042196
											}
										}
									}
								}
							}
						}
					}
				}
			}
		}
	}
}
MOTION
Frames:    8
Frame Time: 0.03333334
 0.000302	 0.019582	 1.273339	-0.002600	 0.004387	 0.174540	 1.453719	-1.741735	 177.375700	 1.476099	-11.727140	-0.684242	-7.642238	 70.525250	 1.584677	-2.385833	 28.452760	 0.000004	-1.620570	-1.796158	-177.672900	-1.467014	-11.358050	 0.649949	 7.278235	 70.195210	-1.392822	 2.384658	 28.388730	 0.000004	-10.919320	 2.595395	 0.281847	-2.143020	 4.106420	-0.772790	 6.485576	-5.068079	 1.433390	-91.776150	 78.527430	 180.000000	 51.332460	 37.686380	-61.452800	-11.436140	 0.342048	-2.745294	-34.546870	-22.034540	-5.980494	-2.635965	 4.993658	 6.788941	-5.165319	 0.784187	 3.516649	-5.225038	 0.466231	 0.424329	-0.000002	-3.783157	-0.089647	 6.290801	 4.371300	-0.240344	 89.782180	 78.203900	 179.999900	-63.620220	 41.740250	 58.286420	 10.790600	 3.787965	 9.595492	 35.656230	-22.558400	 10.890340	 6.112037	 4.509576	-0.364401	 4.968462	 1.518543	-9.347576	 5.168945	 0.703820	 2.021906
 0.000304	 0.019497	 1.274813	-0.002101	 0.005229	 0.173563	 1.775956	-1.750537	 177.353400	 1.476350	-11.707050	-0.683036	-7.608094	 70.264450	 1.557221	-2.385833	 28.452760	 0.000004	-1.942678	-1.805277	-177.650400	-1.467194	-11.342600	 0.649042	 7.246194	 69.937900	-1.365824	 2.384658	 28.388730	 0.000004	-15.243520	 2.505102	 0.265982	-2.106638	 4.418993	-0.736522	 6.373130	-5.477886	 1.434694	-91.776140	 78.527430	 180.000000	 51.394930	 37.664990	-61.261160	-13.618820	 0.593497	-4.265886	-37.382700	-26.053610	-7.452138	-2.635965	 4.993658	 6.788941	-5.165319	 0.784187	 3.516649	-5.225038	 0.466231	 0.424329	-0.000002	-3.783157	-0.089647	 6.165103	 4.195594	-0.226057	 89.782140	 78.203870	 180.000000	-63.134390	 41.215190	 59.438810	 12.400140	 4.375038	 11.288470	 38.897530	-26.735360	 12.375480	 6.112037	 4.509576	-0.364401	 4.968462	 1.518543	-9.347576	 5.168945	 0.703820	 2.021906
 0.000295	 0.019351	 1.277554	-0.001103	 0.006748	 0.166623	 2.390397	-1.761184	 177.315200	 1.476967	-11.656010	-0.679974	-7.525421	 69.771960	 1.500366	-2.385833	 28.452760	 0.000004	-2.530923	-1.826727	-177.605200	-1.467418	-11.323190	 0.647902	 7.203726	 69.463160	-1.321386	 2.384658	 28.388730	 0.000004	-22.817630	 2.342270	 0.235107	-1.988607	 4.982850	-0.654306	 6.011195	-6.227355	 1.397528	-91.776240	 78.527430	-180.000000	 51.471450	 37.593200	-60.833290	-17.633870	 1.371400	-7.045117	-43.065610	-32.450990	-11.132650	-2.635965	 4.993658	 6.788941	-5.165319	 0.784187	 3.516649	-5.225038	 0.466231	 0.424329	-0.000002	-3.783157	-0.089647	 5.785705	 3.894682	-0.196898	 89.782040	 78.203870	-180.000000	-60.594640	 39.510550	 59.528770	 14.482850	 8.514153	 19.082000	 45.357670	-33.559140	 16.164310	 6.112037	 4.509576	-0.364401	 4.968462	 1.518543	-9.347576	 5.168945	 0.703820	 2.021906
 0.000264	 0.019213	 1.280450	-0.000084	 0.008097	 0.151439	 3.026181	-1.762816	 177.282900	 1.477831	-11.584440	-0.675683	-7.455385	 69.241870	 1.443052	-2.385833	 28.452760	 0.000004	-3.166776	-1.859870	-177.550300	-1.467436	-11.321310	 0.647791	 7.145113	 68.971050	-1.275003	 2.384658	 28.388730	 0.000004	-29.628910	 2.182205	 0.203405	-1.793033	 5.537890	-0.550975	 5.415668	-6.978165	 1.297771	-91.776250	 78.527450	-180.000000	 51.503420	 37.479230	-60.310510	-21.680800	 2.579508	-9.797704	-49.171780	-36.826540	-15.667710	-2.635965	 4.993658	 6.788941	-5.165319	 0.784187	 3.516649	-5.225038	 0.466231	 0.424329	-0.000002	-3.783157	-0.089647	 5.185897	 3.618683	-0.163944	 89.782140	 78.203890	 180.000000	-57.618110	 37.586010	 64.120540	 16.298190	 10.569550	 22.303720	 51.657160	-38.684250	 20.701150	 6.112037	 4.509576	-0.364401	 4.968462	 1.518543	-9.347576	 5.168945	 0.703820	 2.021906
 0.000221	 0.019088	 1.282826	 0.000673	 0.008889	 0.131244	 3.591116	-1.757707	 177.260400	 1.478741	-11.508820	-0.671150	-7.392339	 68.765580	 1.391635	-2.385833	 28.452760	 0.000004	-3.730377	-1.898991	-177.496400	-1.467239	-11.338410	 0.648796	 7.096930	 68.544260	-1.238294	 2.384658	 28.388730	 0.000004	-34.206700	 2.055498	 0.178148	-1.560424	 5.978852	-0.449400	 4.711595	-7.583998	 1.154785	-91.776230	 78.527450	-180.000000	 51.482050	 37.343470	-59.786790	-25.104790	 3.904490	-12.003070	-53.736650	-38.180980	-19.118470	-2.635965	 4.993658	 6.788941	-5.165319	 0.784187	 3.516649	-5.225038	 0.466231	 0.424329	-0.000002	-3.783157	-0.089647	 4.493591	 3.413697	-0.133986	 89.782120	 78.203900	 180.000000	-54.214620	 35.435480	 68.604490	 16.678630	 12.393170	 25.071380	 55.231360	-41.298400	 23.654420	 6.112037	 4.509576	-0.364401	 4.968462	 1.518543	-9.347576	 5.168945	 0.703820	 2.021906
 0.000162	 0.018955	 1.285048	 0.001214	 0.009149	 0.104193	 4.173601	-1.747749	 177.243000	 1.479754	-11.423400	-0.666034	-7.327584	 68.271520	 1.339250	-2.385833	 28.452760	 0.000004	-4.309920	-1.950247	-177.436100	-1.466792	-11.377380	 0.651086	 7.051535	 68.116010	-1.205374	 2.384658	 28.388730	 0.000004	-37.151280	 1.944898	 0.156322	-1.266821	 6.366413	-0.338916	 3.827670	-8.123246	 0.954858	-91.776120	 78.527450	 179.999900	 51.419790	 37.183360	-59.228060	-28.232820	 5.416655	-13.989890	-56.983700	-37.070140	-21.072000	-2.635965	 4.993658	 6.788941	-5.165319	 0.784187	 3.516649	-5.225038	 0.466231	 0.424329	-0.000002	-3.783157	-0.089647	 3.639278	 3.244082	-0.103103	 89.782060	 78.203850	-180.000000	-50.391460	 33.164500	 74.420390	 16.672210	 12.975290	 25.726770	 56.576260	-41.657780	 24.693790	 6.112037	 4.509576	-0.364401	 4.968462	 1.518543	-9.347576	 5.168945	 0.703820	 2.021906
 0.000049	 0.018767	 1.287376	 0.001872	 0.012819	 0.079003	 4.822111	-1.723517	 177.215400	 1.481301	-11.292280	-0.658185	-7.254152	 67.702960	 1.280101	-2.385833	 28.452760	 0.000004	-4.954742	-2.011387	-177.373300	-1.466292	-11.420220	 0.653603	 7.004139	 67.639210	-1.172779	 2.384658	 28.388730	 0.000004	-38.054140	 1.847281	 0.126044	-0.884577	 6.699024	-0.213844	 2.682251	-8.591413	 0.676393	-91.776160	 78.527470	 180.000000	 51.286210	 36.969540	-58.568940	-31.263270	 7.145100	-15.834130	-58.447510	-33.141130	-20.743310	-2.635965	 4.993658	 6.788941	-5.165319	 0.784187	 3.516649	-5.225038	 0.466231	 0.424329	-0.000002	-3.783157	-0.089647	 2.547424	 3.106129	-0.069092	 89.782170	 78.203870	 179.999900	-46.313410	 30.130070	 83.131440	 16.827270	 11.241880	 22.391940	 54.623370	-39.296060	 22.629030	 6.112037	 4.509576	-0.364401	 4.968462	 1.518543	-9.347576	 5.168945	 0.703820	 2.021906
-0.000062	 0.018558	 1.289300	 0.001879	 0.015884	 0.053534	 5.396018	-1.699544	 177.194300	 1.482701	-11.172160	-0.651003	-7.189878	 67.198610	 1.228836	-2.385833	 28.452760	 0.000004	-5.523515	-2.072280	-177.315500	-1.465708	-11.470180	 0.656540	 6.964422	 67.224330	-1.146751	 2.384658	 28.388730	 0.000004	-36.668520	 1.743734	 0.130179	-0.505985	 6.979774	-0.154354	 1.566437	-8.905549	 0.416768	-91.776210	 78.527450	-180.000000	 51.119800	 36.762700	-57.990500	-33.508500	 8.602622	-17.142880	-58.210460	-27.707870	-18.509040	-2.635965	 4.993658	 6.788941	-5.165319	 0.784187	 3.516649	-5.225038	 0.466231	 0.424329	-0.000002	-3.783157	-0.089647	 1.490312	 3.029042	-0.039419	 89.782090	 78.203890	 180.000000	-42.799470	 27.212870	 91.407960	 16.578060	 8.513463	 17.240820	 50.824990	-35.001510	 18.461210	 6.112037	 4.509576	-0.364401	 4.968462	 1.518543	-9.347576	 5.168945	 0.703820	 2.021906
